<svg width="980" height="760" viewBox="0 0 980 760" fill="none" xmlns="http://www.w3.org/2000/svg">
  <rect width="980" height="760" rx="34" fill="#120F13"/>
  <rect x="28" y="28" width="924" height="704" rx="28" fill="url(#paint0_linear)"/>
  <path d="M122 610H860" stroke="#A16A47" stroke-width="16" stroke-linecap="round"/>
  <g opacity="0.94">
    <path d="M176 178C177 149 198 128 224 128C250 128 271 149 272 178L264 246H184L176 178Z" fill="#ECD9BF"/>
    <rect x="197" y="246" width="54" height="338" rx="22" fill="#28362B"/>
    <rect x="188" y="324" width="72" height="168" rx="28" fill="#F1E2D1"/>
    <path d="M209 586H239L256 684H192L209 586Z" fill="#C9AD90"/>
  </g>
  <g>
    <path d="M348 146C349 116 372 94 404 94C436 94 459 116 460 146L448 260H360L348 146Z" fill="#EBD9C1"/>
    <rect x="374" y="260" width="60" height="382" rx="24" fill="#7B1E34"/>
    <rect x="364" y="344" width="80" height="204" rx="32" fill="#D7B78F"/>
    <rect x="378" y="396" width="52" height="21" rx="10" fill="#6A0F2A"/>
    <path d="M388 642H420L440 714H369L388 642Z" fill="#D2B79B"/>
  </g>
  <g opacity="0.92">
    <path d="M548 172C549 144 569 122 596 122C623 122 643 144 644 172L636 238H556L548 172Z" fill="#E9D4BA"/>
    <rect x="570" y="238" width="52" height="344" rx="22" fill="#A8444F"/>
    <rect x="562" y="304" width="68" height="190" rx="30" fill="#F4E6D5"/>
    <path d="M581 584H609L626 680H564L581 584Z" fill="#CCB396"/>
  </g>
  <g opacity="0.94">
    <path d="M708 196C709 166 728 146 754 146C780 146 799 166 800 196L792 258H716L708 196Z" fill="#E9D5BE"/>
    <rect x="730" y="258" width="48" height="318" rx="21" fill="#2E222A"/>
    <rect x="722" y="323" width="64" height="178" rx="28" fill="#B08D64"/>
    <path d="M740 576H768L784 674H724L740 576Z" fill="#D0B69C"/>
  </g>
  <g opacity="0.7">
    <circle cx="165" cy="160" r="58" fill="#251723"/>
    <circle cx="847" cy="576" r="72" fill="#21151D"/>
  </g>
  <defs>
    <linearGradient id="paint0_linear" x1="124" y1="98" x2="836" y2="680" gradientUnits="userSpaceOnUse">
      <stop stop-color="#251A21"/>
      <stop offset="1" stop-color="#18131A"/>
    </linearGradient>
  </defs>
</svg>
