<svg width="900" height="760" viewBox="0 0 900 760" fill="none" xmlns="http://www.w3.org/2000/svg">
  <rect width="900" height="760" rx="34" fill="#151116"/>
  <rect x="28" y="28" width="844" height="704" rx="28" fill="url(#paint0_linear)"/>
  <path d="M548 126C520 165 488 194 448 211" stroke="#7DA860" stroke-width="16" stroke-linecap="round"/>
  <path d="M448 211C432 246 420 282 420 326" stroke="#7DA860" stroke-width="14" stroke-linecap="round"/>
  <path d="M592 104C632 95 676 106 718 141C671 159 629 151 592 104Z" fill="#7AA659"/>
  <path d="M390 184C356 154 316 143 270 150C299 195 339 211 390 184Z" fill="#6E9751"/>
  <g>
    <circle cx="452" cy="332" r="66" fill="#64132A"/>
    <circle cx="377" cy="388" r="64" fill="#7A1732"/>
    <circle cx="453" cy="448" r="66" fill="#8D243A"/>
    <circle cx="535" cy="392" r="62" fill="#A33A49"/>
    <circle cx="364" cy="492" r="57" fill="#A23047"/>
    <circle cx="451" cy="556" r="63" fill="#7E1734"/>
    <circle cx="544" cy="508" r="59" fill="#6A0D28"/>
    <circle cx="614" cy="446" r="53" fill="#7A1831"/>
    <circle cx="296" cy="440" r="51" fill="#5D0F24"/>
    <circle cx="293" cy="546" r="48" fill="#7D1632"/>
    <circle cx="377" cy="620" r="45" fill="#A93746"/>
    <circle cx="522" cy="620" r="46" fill="#95253E"/>
  </g>
  <g opacity="0.92">
    <path d="M163 564C205 547 244 552 282 586C232 607 194 602 163 564Z" fill="#85B966"/>
    <path d="M607 600C649 586 694 594 738 631C689 649 645 640 607 600Z" fill="#79A95B"/>
    <path d="M242 242C276 228 312 233 350 265C308 282 273 279 242 242Z" fill="#87BA68"/>
  </g>
  <defs>
    <linearGradient id="paint0_linear" x1="118" y1="68" x2="762" y2="681" gradientUnits="userSpaceOnUse">
      <stop stop-color="#2A1F29"/>
      <stop offset="1" stop-color="#1C1820"/>
    </linearGradient>
  </defs>
</svg>
