<svg width="1200" height="980" viewBox="0 0 1200 980" fill="none" xmlns="http://www.w3.org/2000/svg">
  <rect width="1200" height="980" rx="48" fill="#140F14"/>
  <rect x="46" y="46" width="1108" height="888" rx="36" fill="url(#bg)"/>
  <ellipse cx="588" cy="790" rx="420" ry="84" fill="#22131D"/>
  <path d="M235 760H925" stroke="#B78455" stroke-width="18" stroke-linecap="round"/>
  <g opacity="0.9">
    <path d="M364 172C365 143 385 122 412 122C439 122 459 143 460 172L451 244H373L364 172Z" fill="#E7D1B8"/>
    <rect x="385" y="244" width="54" height="408" rx="22" fill="#2D8A66"/>
    <rect x="377" y="300" width="70" height="215" rx="28" fill="#F3E8D6"/>
    <path d="M397 655H427L444 756H379L397 655Z" fill="#D8C1A5"/>
    <rect x="391" y="336" width="42" height="18" rx="9" fill="#A43245"/>
  </g>
  <g>
    <path d="M520 150C521 120 544 98 575 98C606 98 629 120 630 150L618 258H532L520 150Z" fill="#EAD6BE"/>
    <rect x="543" y="258" width="64" height="468" rx="26" fill="#21161D"/>
    <rect x="533" y="342" width="84" height="252" rx="34" fill="#7D2137"/>
    <rect x="546" y="392" width="58" height="24" rx="12" fill="#E5D3BE"/>
    <path d="M558 725H592L614 842H535L558 725Z" fill="#D1B69C"/>
  </g>
  <g opacity="0.95">
    <path d="M708 174C709 144 729 122 756 122C783 122 803 144 804 174L796 240H716L708 174Z" fill="#E7D1B8"/>
    <rect x="730" y="240" width="52" height="396" rx="21" fill="#3B2832"/>
    <rect x="722" y="314" width="68" height="192" rx="28" fill="#C5A478"/>
    <rect x="733" y="356" width="46" height="18" rx="9" fill="#6F1730"/>
    <path d="M742 638H770L787 748H726L742 638Z" fill="#D8C1A5"/>
  </g>
  <g opacity="0.95">
    <ellipse cx="905" cy="622" rx="56" ry="120" fill="#1B141B"/>
    <path d="M905 504C905 446 924 395 950 395C976 395 995 446 995 504V528H905V504Z" fill="#F0E1CF"/>
    <path d="M872 528H1038C1038 570 1006 608 966 608H944C904 608 872 570 872 528Z" fill="#F0E1CF"/>
    <rect x="943" y="608" width="24" height="126" rx="12" fill="#F0E1CF"/>
    <ellipse cx="955" cy="748" rx="74" ry="18" fill="#26141E"/>
  </g>
  <g>
    <circle cx="250" cy="604" r="46" fill="#7B1830"/>
    <circle cx="310" cy="640" r="48" fill="#942A3A"/>
    <circle cx="255" cy="692" r="44" fill="#A53647"/>
    <circle cx="322" cy="700" r="42" fill="#7A1631"/>
    <circle cx="194" cy="652" r="41" fill="#92283D"/>
    <path d="M272 545C286 515 324 494 371 492" stroke="#7EA361" stroke-width="14" stroke-linecap="round"/>
    <path d="M371 492C398 492 422 471 434 444" stroke="#7EA361" stroke-width="12" stroke-linecap="round"/>
    <path d="M341 470C321 438 298 426 272 424C281 454 297 476 341 470Z" fill="#6E9B55"/>
    <path d="M429 433C462 428 490 437 515 462C480 473 448 468 429 433Z" fill="#87B666"/>
  </g>
  <g opacity="0.72">
    <rect x="872" y="142" width="180" height="180" rx="32" fill="#24171F"/>
    <circle cx="962" cy="232" r="56" fill="#A13143"/>
    <circle cx="918" cy="253" r="34" fill="#7F1833"/>
    <circle cx="1002" cy="262" r="31" fill="#6B0F29"/>
    <path d="M931 186C958 159 993 145 1034 146" stroke="#88B96B" stroke-width="10" stroke-linecap="round"/>
    <path d="M1010 144C1040 134 1068 142 1096 166C1060 179 1034 174 1010 144Z" fill="#7AA65B"/>
  </g>
  <defs>
    <linearGradient id="bg" x1="132" y1="108" x2="1036" y2="874" gradientUnits="userSpaceOnUse">
      <stop stop-color="#2A1D28"/>
      <stop offset="0.55" stop-color="#1B161F"/>
      <stop offset="1" stop-color="#33222B"/>
    </linearGradient>
  </defs>
</svg>
